<svg width="13" height="9" viewBox="0 0 13 9" fill="none" xmlns="http://www.w3.org/2000/svg">
<path d="M10.7661 3.96208L8.18322 1.38005L8.18321 1.38004C8.08231 1.27913 8.02562 1.14228 8.02562 0.999576C8.02562 0.856876 8.08231 0.72002 8.18321 0.619115C8.28411 0.518211 8.42097 0.461523 8.56367 0.461523C8.63433 0.461523 8.7043 0.475441 8.76958 0.50248C8.83485 0.52952 8.89417 0.569152 8.94413 0.619115L12.444 4.11903C12.4441 4.11904 12.4441 4.11905 12.4441 4.11907L12.4441 4.11912L12.3734 4.18983C12.4142 4.23047 12.4465 4.27874 12.4685 4.3319C12.4906 4.38505 12.502 4.44203 12.502 4.49958C12.502 4.55712 12.4906 4.6141 12.4685 4.66725C12.4465 4.72041 12.4142 4.76869 12.3734 4.80933L10.7661 3.96208ZM10.7661 3.96208L0.688671 3.96208C0.546116 3.96208 0.409401 4.01871 0.308601 4.11951C0.207799 4.22031 0.15117 4.35702 0.15117 4.49958C0.15117 4.64213 0.207799 4.77884 0.308601 4.87965C0.409401 4.98045 0.546116 5.03708 0.688671 5.03708L10.7661 5.03708L8.18322 7.6191L8.18321 7.61911C8.08231 7.72002 8.02562 7.85688 8.02562 7.99958C8.02562 8.14228 8.08231 8.27913 8.18321 8.38004C8.28411 8.48094 8.42097 8.53763 8.56367 8.53763C8.70637 8.53763 8.84323 8.48094 8.94413 8.38004L12.444 4.88013L10.7661 3.96208Z" fill="#5932EA" stroke="#5932EA" stroke-width="0.2"/>
</svg>
