<svg width="8" height="11" viewBox="0 0 8 11" fill="none" xmlns="http://www.w3.org/2000/svg">
<path d="M3.58789 8.56658L1.79237 6.77048L1.79236 6.77047C1.71492 6.69304 1.6099 6.64953 1.50039 6.64953C1.39089 6.64953 1.28587 6.69304 1.20843 6.77047C1.131 6.8479 1.0875 6.95292 1.0875 7.06243C1.0875 7.11665 1.09818 7.17034 1.11893 7.22044C1.13968 7.27053 1.17009 7.31605 1.20843 7.35439L1.27899 7.28383L1.20843 7.35439L3.70834 9.8543C3.70836 9.85432 3.70839 9.85434 3.70841 9.85436L3.58789 8.56658ZM3.58789 8.56658V1.43743C3.58789 1.32803 3.63135 1.22311 3.70871 1.14575C3.78607 1.06839 3.89099 1.02493 4.00039 1.02493C4.1098 1.02493 4.21472 1.06839 4.29208 1.14575C4.36944 1.22311 4.41289 1.32803 4.41289 1.43743V8.56658L6.20842 6.77048L6.20843 6.77047C6.28587 6.69304 6.39089 6.64953 6.50039 6.64953C6.6099 6.64953 6.71492 6.69304 6.79236 6.77047C6.86979 6.8479 6.91329 6.95292 6.91329 7.06243C6.91329 7.17194 6.86979 7.27696 6.79236 7.35439L4.29244 9.8543C4.29242 9.85432 4.2924 9.85434 4.29238 9.85436L3.58789 8.56658Z" fill="#FF0000" stroke="#FF0000" stroke-width="0.2"/>
</svg>
