<svg width="7" height="11" viewBox="0 0 7 11" fill="none" xmlns="http://www.w3.org/2000/svg">
<path d="M3.21875 2.43342L1.42323 4.22952L1.42321 4.22953C1.34578 4.30696 1.24076 4.35047 1.13125 4.35047C1.02175 4.35047 0.916726 4.30696 0.839293 4.22953C0.761861 4.1521 0.718359 4.04708 0.718359 3.93757C0.718359 3.88335 0.729039 3.82966 0.749789 3.77956C0.770539 3.72947 0.800952 3.68395 0.839293 3.64561L0.909851 3.71617L0.839293 3.64561L3.3392 1.1457C3.33922 1.14568 3.33924 1.14566 3.33927 1.14564L3.21875 2.43342ZM3.21875 2.43342V9.56257C3.21875 9.67197 3.26221 9.77689 3.33957 9.85425C3.41693 9.93161 3.52185 9.97507 3.63125 9.97507C3.74066 9.97507 3.84558 9.93161 3.92294 9.85425C4.00029 9.77689 4.04375 9.67197 4.04375 9.56257V2.43342L5.83928 4.22952L5.83929 4.22953C5.91673 4.30696 6.02175 4.35047 6.13125 4.35047C6.24076 4.35047 6.34578 4.30696 6.42321 4.22953C6.50065 4.1521 6.54415 4.04708 6.54415 3.93757C6.54415 3.82806 6.50065 3.72304 6.42321 3.64561L3.9233 1.1457C3.92328 1.14568 3.92326 1.14566 3.92324 1.14564L3.21875 2.43342Z" fill="#3D37F1" stroke="#3D37F1" stroke-width="0.2"/>
</svg>
