<svg width="46" height="46" viewBox="0 0 46 46" fill="none" xmlns="http://www.w3.org/2000/svg">
<path d="M38.7358 14.9891L23.9774 23.5374C23.3833 23.8824 22.6358 23.8824 22.0224 23.5374L7.26409 14.9891C6.20992 14.3757 5.94159 12.9382 6.74659 12.0374C7.30242 11.4049 7.93492 10.8874 8.60576 10.5232L18.9941 4.77324C21.2174 3.52741 24.8208 3.52741 27.0441 4.77324L37.4324 10.5232C38.1033 10.8874 38.7358 11.4241 39.2916 12.0374C40.0583 12.9382 39.7899 14.3757 38.7358 14.9891Z" fill="#5932EA"/>
<path d="M21.9087 27.1014V40.173C21.9087 41.6297 20.4329 42.588 19.1296 41.9555C15.1812 40.0197 8.53039 36.3972 8.53039 36.3972C6.19206 35.0747 4.27539 31.7397 4.27539 28.9989V19.1089C4.27539 17.5947 5.86622 16.6364 7.16956 17.3839L20.9504 25.3764C21.5254 25.7405 21.9087 26.3922 21.9087 27.1014Z" fill="#5932EA"/>
<path d="M24.0938 27.1014V40.173C24.0938 41.6297 25.5696 42.588 26.8729 41.9555C30.8213 40.0197 37.4721 36.3972 37.4721 36.3972C39.8104 35.0747 41.7271 31.7397 41.7271 28.9989V19.1089C41.7271 17.5947 40.1363 16.6364 38.8329 17.3839L25.0521 25.3764C24.4771 25.7405 24.0938 26.3922 24.0938 27.1014Z" fill="#5932EA"/>
</svg>
