<svg width="18" height="23" viewBox="0 0 18 23" fill="none" xmlns="http://www.w3.org/2000/svg">
<path d="M16.7496 8.21554L16.3715 19.428C16.3393 20.3882 15.9265 21.2984 15.2207 21.9653C14.5148 22.6323 13.5715 23.0034 12.591 23H5.40803C4.42814 23.0034 3.48541 22.6328 2.77967 21.9667C2.07393 21.3005 1.66068 20.3913 1.62751 19.4317L1.24946 8.21554C1.24119 7.96992 1.33283 7.73114 1.50423 7.55173C1.67563 7.37232 1.91274 7.26697 2.1634 7.25887C2.41407 7.25076 2.65775 7.34056 2.84085 7.50851C3.02394 7.67646 3.13145 7.9088 3.13972 8.15442L3.51777 19.3696C3.5366 19.8484 3.74403 20.3014 4.0965 20.6335C4.44898 20.9656 4.91906 21.1509 5.40803 21.1505H12.591C13.0806 21.1509 13.5512 20.965 13.9038 20.6321C14.2564 20.2993 14.4634 19.8453 14.4813 19.3659L14.8593 8.15442C14.8676 7.9088 14.9751 7.67646 15.1582 7.50851C15.3413 7.34056 15.585 7.25076 15.8357 7.25887C16.0863 7.26697 16.3234 7.37232 16.4948 7.55173C16.6662 7.73114 16.7579 7.96992 16.7496 8.21554ZM18 4.48424C18 4.72986 17.9004 4.96542 17.7232 5.1391C17.5459 5.31278 17.3055 5.41035 17.0549 5.41035H0.94513C0.694466 5.41035 0.454068 5.31278 0.276822 5.1391C0.0995756 4.96542 0 4.72986 0 4.48424C0 4.23862 0.0995756 4.00306 0.276822 3.82938C0.454068 3.6557 0.694466 3.55813 0.94513 3.55813H3.87503C4.17449 3.55892 4.46355 3.45051 4.68594 3.25399C4.90832 3.05747 5.04814 2.78691 5.07818 2.49495C5.14793 1.81008 5.47538 1.17518 5.99675 0.713955C6.51812 0.25273 7.19604 -0.0017812 7.89845 9.38417e-06H10.1006C10.803 -0.0017812 11.4809 0.25273 12.0023 0.713955C12.5237 1.17518 12.8511 1.81008 12.9209 2.49495C12.9509 2.78691 13.0907 3.05747 13.3131 3.25399C13.5355 3.45051 13.8246 3.55892 14.124 3.55813H17.0539C17.3046 3.55813 17.545 3.6557 17.7222 3.82938C17.8995 4.00306 17.9991 4.23862 17.9991 4.48424H18ZM6.71893 3.55813H11.282C11.1578 3.28006 11.0766 2.98541 11.041 2.68388C11.0176 2.4556 10.9085 2.24396 10.735 2.08997C10.5614 1.93598 10.3357 1.85061 10.1015 1.85038H7.8994C7.66526 1.85061 7.43954 1.93598 7.26597 2.08997C7.09241 2.24396 6.98335 2.4556 6.95994 2.68388C6.92405 2.98545 6.84251 3.28011 6.71798 3.55813H6.71893ZM7.67067 17.5896V9.7038C7.67067 9.45818 7.5711 9.22262 7.39385 9.04894C7.21661 8.87526 6.97621 8.77769 6.72554 8.77769C6.47488 8.77769 6.23448 8.87526 6.05724 9.04894C5.87999 9.22262 5.78041 9.45818 5.78041 9.7038V17.5933C5.78041 17.839 5.87999 18.0745 6.05724 18.2482C6.23448 18.4219 6.47488 18.5195 6.72554 18.5195C6.97621 18.5195 7.21661 18.4219 7.39385 18.2482C7.5711 18.0745 7.67067 17.839 7.67067 17.5933V17.5896ZM12.2205 17.5896V9.7038C12.2205 9.45818 12.121 9.22262 11.9437 9.04894C11.7665 8.87526 11.5261 8.77769 11.2754 8.77769C11.0247 8.77769 10.7843 8.87526 10.6071 9.04894C10.4298 9.22262 10.3303 9.45818 10.3303 9.7038V17.5933C10.3303 17.839 10.4298 18.0745 10.6071 18.2482C10.7843 18.4219 11.0247 18.5195 11.2754 18.5195C11.5261 18.5195 11.7665 18.4219 11.9437 18.2482C12.121 18.0745 12.2205 17.839 12.2205 17.5933V17.5896Z" fill="#FC3232"/>
</svg>
