<svg width="18" height="18" viewBox="0 0 18 18" fill="none" xmlns="http://www.w3.org/2000/svg">
<path d="M8.99935 17.3337C4.39697 17.3337 0.666016 13.6027 0.666016 9.00033C0.666016 4.39795 4.39697 0.666992 8.99935 0.666992C13.6017 0.666992 17.3327 4.39795 17.3327 9.00033C17.3327 13.6027 13.6017 17.3337 8.99935 17.3337ZM8.16602 11.5003V13.167H9.83268V11.5003H8.16602ZM9.83268 10.1296C11.0374 9.77099 11.916 8.65491 11.916 7.33366C11.916 5.72283 10.6102 4.41699 8.99935 4.41699C7.58435 4.41699 6.40466 5.42465 6.13877 6.76154L7.77335 7.08847C7.88735 6.51552 8.39293 6.08366 8.99935 6.08366C9.68968 6.08366 10.2493 6.6433 10.2493 7.33366C10.2493 8.02399 9.68968 8.58366 8.99935 8.58366C8.5391 8.58366 8.16602 8.95674 8.16602 9.41699V10.667H9.83268V10.1296Z" fill="#374151"/>
</svg>
