<svg width="29" height="29" viewBox="0 0 29 29" fill="none" xmlns="http://www.w3.org/2000/svg">
<path d="M9.79647 26.9502H5.01062C2.62955 26.9502 1.48047 25.8485 1.48047 23.574V4.85711C1.48047 2.58265 2.64139 1.48096 5.01062 1.48096H9.79647C12.1775 1.48096 13.3266 2.58265 13.3266 4.85711V23.574C13.3266 25.8485 12.1657 26.9502 9.79647 26.9502ZM5.01062 3.25788C3.50616 3.25788 3.25739 3.66065 3.25739 4.85711V23.574C3.25739 24.7705 3.50616 25.1733 5.01062 25.1733H9.79647C11.3009 25.1733 11.5497 24.7705 11.5497 23.574V4.85711C11.5497 3.66065 11.3009 3.25788 9.79647 3.25788H5.01062Z" fill="white"/>
<path d="M23.4195 16.2886H18.6337C16.2526 16.2886 15.1035 15.187 15.1035 12.9125V4.85711C15.1035 2.58265 16.2644 1.48096 18.6337 1.48096H23.4195C25.8006 1.48096 26.9497 2.58265 26.9497 4.85711V12.9125C26.9497 15.187 25.7887 16.2886 23.4195 16.2886ZM18.6337 3.25788C17.1292 3.25788 16.8804 3.66065 16.8804 4.85711V12.9125C16.8804 14.109 17.1292 14.5117 18.6337 14.5117H23.4195C24.924 14.5117 25.1727 14.109 25.1727 12.9125V4.85711C25.1727 3.66065 24.924 3.25788 23.4195 3.25788H18.6337Z" fill="white"/>
<path d="M23.4195 26.9496H18.6337C16.2526 26.9496 15.1035 25.8479 15.1035 23.5734V21.4411C15.1035 19.1666 16.2644 18.0649 18.6337 18.0649H23.4195C25.8006 18.0649 26.9497 19.1666 26.9497 21.4411V23.5734C26.9497 25.8479 25.7887 26.9496 23.4195 26.9496ZM18.6337 19.8419C17.1292 19.8419 16.8804 20.2446 16.8804 21.4411V23.5734C16.8804 24.7699 17.1292 25.1726 18.6337 25.1726H23.4195C24.924 25.1726 25.1727 24.7699 25.1727 23.5734V21.4411C25.1727 20.2446 24.924 19.8419 23.4195 19.8419H18.6337Z" fill="white"/>
</svg>
