<svg width="26" height="18" viewBox="0 0 26 18" fill="none" xmlns="http://www.w3.org/2000/svg">
<path fill-rule="evenodd" clip-rule="evenodd" d="M12.2207 6.75C10.8457 6.75 9.7207 7.7625 9.7207 9C9.7207 10.2375 10.8457 11.25 12.2207 11.25C13.5957 11.25 14.7207 10.2375 14.7207 9C14.7207 7.7625 13.5957 6.75 12.2207 6.75ZM12.2207 0C10.8457 0 9.7207 1.0125 9.7207 2.25C9.7207 3.4875 10.8457 4.5 12.2207 4.5C13.5957 4.5 14.7207 3.4875 14.7207 2.25C14.7207 1.0125 13.5957 0 12.2207 0ZM12.2207 13.5C10.8457 13.5 9.7207 14.5125 9.7207 15.75C9.7207 16.9875 10.8457 18 12.2207 18C13.5957 18 14.7207 16.9875 14.7207 15.75C14.7207 14.5125 13.5957 13.5 12.2207 13.5Z" fill="#374151"/>
</svg>
