<svg width="20" height="20" viewBox="0 0 20 20" fill="none" xmlns="http://www.w3.org/2000/svg">
<mask id="mask0_2_926" style="mask-type:alpha" maskUnits="userSpaceOnUse" x="0" y="0" width="20" height="20">
<circle cx="10" cy="10" r="10" fill="white"/>
</mask>
<g mask="url(#mask0_2_926)">
<circle cx="10" cy="10" r="10" fill="url(#paint0_linear_2_926)"/>
<path d="M17.9509 7.43118C17.9509 7.77988 17.6605 8.06256 17.3028 8.06256C16.9447 8.06256 16.6543 7.77988 16.6543 7.43118C16.6543 7.08248 16.9447 6.7998 17.3028 6.7998C17.6605 6.7998 17.9509 7.08248 17.9509 7.43118Z" fill="white"/>
<path fill-rule="evenodd" clip-rule="evenodd" d="M17.5575 10.2292C17.5237 10.1777 17.4583 10.1445 17.3912 10.1445C17.3274 10.1445 17.2702 10.1737 17.2341 10.2247C17.1929 10.2831 17.142 10.3524 17.0829 10.4308C17.018 10.5167 16.9479 10.5991 16.8747 10.6757C16.8018 10.7518 16.7309 10.8181 16.6638 10.8725C16.5945 10.9289 16.5494 10.9407 16.5241 10.9407C16.5062 10.9407 16.4732 10.9407 16.4655 10.855C16.4578 10.7653 16.4713 10.6487 16.5059 10.5083C16.5414 10.3641 16.5926 10.2041 16.6583 10.0326C16.7254 9.85802 16.7925 9.69132 16.8579 9.5371C16.9261 9.37677 16.9847 9.2435 17.037 9.12965C17.0889 9.01633 17.1214 8.94257 17.1338 8.91031C17.1756 8.81695 17.1604 8.72493 17.09 8.64406C17.0254 8.56994 16.9388 8.51802 16.8329 8.48967C16.7295 8.46198 16.6168 8.46036 16.4993 8.48489C16.3737 8.5112 16.2738 8.58237 16.2029 8.69628C16.1405 8.7963 16.0591 8.95341 15.9614 9.16323C15.8633 9.37355 15.7684 9.60711 15.6793 9.85733C15.6254 10.0091 15.5756 10.1634 15.5308 10.3187C15.4557 10.577 15.3014 10.8066 15.0889 10.9765C15.013 11.0374 14.9329 11.0947 14.8496 11.148C14.8128 11.1716 14.7756 11.1934 14.7385 11.2134C14.7267 11.2198 14.7143 11.2059 14.7226 11.1955C14.7869 11.1127 14.8499 11.0233 14.9115 10.9278C15.0385 10.7311 15.1543 10.4955 15.2555 10.2276C15.3625 9.94399 15.4296 9.68529 15.4552 9.45861C15.4807 9.22915 15.4719 9.02892 15.4285 8.86348C15.3837 8.69268 15.3056 8.55831 15.1958 8.4641C15.0823 8.36675 14.9417 8.31738 14.7787 8.31738C14.5862 8.31738 14.4093 8.36719 14.2531 8.46542C14.1462 8.53252 14.0472 8.60748 13.9575 8.68924C13.9501 8.696 13.944 8.69518 13.9385 8.68682C13.9187 8.65577 13.8918 8.62654 13.8582 8.5992C13.7823 8.53788 13.691 8.49682 13.5865 8.47719C13.482 8.45774 13.3756 8.46478 13.2719 8.49809C13.1611 8.5337 13.0783 8.60737 13.0261 8.71707C12.9257 8.92841 12.8198 9.17506 12.7112 9.4502C12.6028 9.72489 12.4972 10.0121 12.3971 10.3037C12.3861 10.3361 12.3749 10.3685 12.3639 10.4008C12.2794 10.6496 12.1208 10.8679 11.9082 11.0275C11.8521 11.0696 11.7941 11.1099 11.7347 11.148C11.6978 11.1716 11.6607 11.1934 11.6233 11.2134C11.6117 11.2198 11.5994 11.2059 11.6076 11.1955C11.6717 11.1128 11.7349 11.0234 11.7965 10.9278C11.9236 10.7313 12.0391 10.4957 12.1406 10.2276C12.2475 9.94396 12.3146 9.68524 12.3402 9.45861C12.3658 9.22904 12.3567 9.02881 12.3135 8.86348C12.269 8.69276 12.1906 8.55839 12.0809 8.4641C11.9673 8.36675 11.8268 8.31738 11.6637 8.31738C11.4712 8.31738 11.2944 8.36719 11.1382 8.46539C11.0312 8.53252 10.9322 8.60748 10.8426 8.68918C10.8351 8.69595 10.8291 8.69518 10.8236 8.68674C10.8038 8.65577 10.7768 8.62651 10.743 8.59923C10.6674 8.53791 10.5761 8.49685 10.4716 8.47719C10.3668 8.45772 10.2604 8.46478 10.157 8.49809C10.0462 8.53364 9.96338 8.60726 9.91086 8.7171C9.81076 8.92877 9.70461 9.17541 9.59626 9.4502C9.49451 9.70837 9.39551 9.9763 9.30146 10.2475C9.23078 10.4522 9.12463 10.6166 8.96623 10.7673C8.92553 10.8061 8.88566 10.8413 8.84716 10.8725C8.77758 10.9289 8.73275 10.9407 8.70745 10.9407C8.68958 10.9407 8.6563 10.9407 8.64888 10.855C8.64118 10.7655 8.65465 10.6489 8.6893 10.5083C8.7245 10.3642 8.77593 10.2041 8.84165 10.0326C8.90793 9.85981 8.97503 9.69308 9.0413 9.5371C9.10813 9.3798 9.16835 9.24271 9.22005 9.12965C9.27313 9.01407 9.30476 8.94224 9.31713 8.91029C9.35893 8.81695 9.34353 8.72493 9.27313 8.64406C9.20851 8.56983 9.12051 8.5178 9.01133 8.48948C8.90518 8.46192 8.7927 8.46041 8.67803 8.48497C8.5551 8.51137 8.45693 8.58248 8.38625 8.69609C8.37195 8.71858 8.35737 8.74339 8.3417 8.77092C8.33592 8.78076 8.32107 8.77856 8.3186 8.76756C8.30512 8.70552 8.2834 8.64689 8.2537 8.59238C8.20915 8.51115 8.14315 8.44452 8.0579 8.39425C7.971 8.34323 7.86072 8.31738 7.73037 8.31738C7.42265 8.31738 7.11052 8.45629 6.80279 8.73027C6.50057 8.9993 6.25032 9.4285 6.05809 10.0063C5.96817 10.2849 5.91536 10.5424 5.90106 10.7717C5.88676 11.0038 5.90601 11.2041 5.95799 11.3669C6.01161 11.5348 6.09687 11.6674 6.21209 11.7608C6.33089 11.8574 6.47362 11.9064 6.63614 11.9064C6.75659 11.9064 6.87127 11.8861 6.97742 11.846C7.08027 11.8071 7.1757 11.7571 7.26095 11.6975C7.3264 11.6517 7.38745 11.5998 7.443 11.5428C7.48232 11.5021 7.55217 11.5186 7.5684 11.5723C7.58655 11.6326 7.61212 11.6862 7.64457 11.7328C7.72488 11.848 7.8522 11.9064 8.0227 11.9064C8.21135 11.9064 8.4022 11.8371 8.58975 11.7004C8.6772 11.6368 8.76273 11.5674 8.84523 11.4928C8.86393 11.476 8.89335 11.494 8.88593 11.5177C8.83753 11.6748 8.79436 11.8204 8.75531 11.9571C8.68931 12.1867 8.63568 12.3845 8.59608 12.545C8.54273 12.7602 8.53585 12.8187 8.53585 12.8457C8.53585 12.9777 8.57765 13.0902 8.66043 13.1801C8.74045 13.2667 8.83285 13.3288 8.93598 13.3647C9.00363 13.3882 9.0699 13.4001 9.13233 13.4001C9.16698 13.4001 9.20136 13.3965 9.23408 13.3893C9.30778 13.3729 9.40156 13.3248 9.42878 13.1882L9.42933 13.1856C9.44006 13.1137 9.46068 13.0163 9.49093 12.896C9.52201 12.7712 9.55968 12.6292 9.60341 12.4738C9.64631 12.3193 9.69526 12.1472 9.75328 11.9476C9.78023 11.8553 9.80884 11.7587 9.83936 11.6583C9.84569 11.6378 9.87373 11.6346 9.88473 11.653C9.89821 11.676 9.91333 11.6984 9.93011 11.7202C10.0242 11.8434 10.174 11.906 10.3759 11.9064C10.4163 11.9082 10.457 11.9091 10.4966 11.9091C10.7933 11.9091 11.0722 11.8593 11.3249 11.7611C11.5664 11.6673 11.7877 11.5528 11.9849 11.4202C12.0042 11.4072 12.0295 11.4253 12.0229 11.4473C11.9662 11.6296 11.9151 11.8003 11.8702 11.9571C11.804 12.1883 11.7503 12.3861 11.711 12.545C11.6577 12.7606 11.6508 12.819 11.6508 12.8457C11.6508 12.9777 11.6926 13.0901 11.7754 13.1801C11.8554 13.2667 11.9481 13.3288 12.0509 13.3647C12.1188 13.3882 12.1848 13.4001 12.2473 13.4001C12.2819 13.4001 12.3163 13.3965 12.349 13.3893C12.423 13.3729 12.5165 13.3247 12.544 13.1882L12.5443 13.1856C12.5553 13.1134 12.5759 13.016 12.6059 12.896C12.6369 12.7713 12.6746 12.6293 12.7183 12.4738C12.7615 12.3186 12.8107 12.1465 12.8685 11.9476C12.8952 11.8551 12.924 11.7585 12.9546 11.6582C12.9606 11.6377 12.9889 11.6345 12.9997 11.6529C13.0134 11.6759 13.0285 11.6984 13.0453 11.7202C13.1391 11.8434 13.289 11.906 13.4908 11.9064C13.5313 11.9082 13.5719 11.9091 13.6118 11.9091C13.9083 11.9091 14.1871 11.8593 14.4399 11.7611C14.7231 11.6513 14.9789 11.5131 15.2002 11.3502C15.2379 11.3225 15.2745 11.2945 15.3102 11.2662C15.3267 11.2532 15.3512 11.2648 15.3507 11.2855C15.3507 11.2947 15.3507 11.304 15.3507 11.3131C15.3507 11.4863 15.3878 11.6275 15.4612 11.7328C15.5415 11.848 15.6688 11.9064 15.8393 11.9064C16.028 11.9064 16.2199 11.8372 16.4102 11.7008C16.5912 11.5712 16.762 11.418 16.9179 11.2453C17.0719 11.0752 17.2069 10.9056 17.3199 10.7413C17.4341 10.575 17.5108 10.4613 17.5548 10.3937C17.5897 10.3397 17.5908 10.2797 17.5575 10.2292ZM14.444 9.35334C14.422 9.47247 14.3868 9.60981 14.3398 9.76152C14.2925 9.91291 14.232 10.0726 14.1605 10.2347C14.0826 10.3981 14.0021 10.5509 13.9215 10.6887C13.8412 10.825 13.7617 10.9422 13.685 11.0372C13.6102 11.1297 13.5409 11.198 13.479 11.2405C13.4322 11.2725 13.4064 11.276 13.3976 11.276C13.3935 11.276 13.3902 11.2754 13.3866 11.2738C13.3789 11.2705 13.3528 11.2533 13.3412 11.1719C13.3308 11.0973 13.3366 10.9995 13.358 10.8809C13.38 10.7586 13.4152 10.6201 13.4622 10.4692C13.5093 10.3186 13.5697 10.1589 13.6421 9.99467C13.7141 9.83182 13.7928 9.67979 13.8761 9.54282C13.9592 9.40598 14.04 9.29001 14.1165 9.19794C14.191 9.10812 14.2603 9.04075 14.323 8.99774C14.3697 8.96567 14.3956 8.96221 14.4044 8.96221C14.4085 8.96221 14.4121 8.96287 14.4154 8.96427C14.4231 8.96757 14.4489 8.98487 14.4605 9.06629C14.4709 9.14087 14.4654 9.23745 14.444 9.35334ZM11.3279 9.35337C11.3059 9.47253 11.2707 9.60989 11.2237 9.76152C11.1761 9.91371 11.1156 10.0734 11.0444 10.2347C10.9666 10.3984 10.886 10.5512 10.8054 10.6887C10.7251 10.8251 10.6457 10.9423 10.5689 11.0372C10.4941 11.1296 10.4248 11.198 10.363 11.2405C10.3162 11.2725 10.2906 11.276 10.2816 11.276C10.2774 11.276 10.2741 11.2754 10.2706 11.2738C10.2629 11.2705 10.2367 11.2533 10.2252 11.1718C10.2147 11.0977 10.2205 10.9998 10.242 10.8809C10.264 10.759 10.2992 10.6205 10.3462 10.4692C10.3932 10.3185 10.4537 10.1588 10.5263 9.99467C10.5984 9.8314 10.677 9.67938 10.7598 9.54284C10.8434 9.40584 10.9242 9.28979 11.0004 9.19799C11.0752 9.10793 11.1445 9.04053 11.2069 8.99771C11.2537 8.96567 11.2795 8.96221 11.2886 8.96221C11.2927 8.96221 11.296 8.96287 11.2993 8.96427C11.307 8.96757 11.3332 8.98487 11.3447 9.06629C11.3552 9.14068 11.3494 9.23729 11.3279 9.35337ZM7.95175 9.32287C7.938 9.44371 7.91132 9.58192 7.87255 9.73367C7.83377 9.88481 7.78043 10.0441 7.71387 10.2071C7.64787 10.3693 7.57747 10.5219 7.50432 10.6606C7.4331 10.796 7.36077 10.9116 7.28955 11.004C7.22025 11.094 7.15507 11.161 7.09594 11.2033C7.05222 11.2347 7.02802 11.2381 7.01949 11.2381C7.01564 11.2381 7.01262 11.2374 7.00905 11.2358C7.0008 11.2324 6.97357 11.2147 6.95927 11.1321C6.94607 11.0565 6.9447 10.9589 6.95542 10.8419C6.96642 10.723 6.99172 10.5864 7.03022 10.4359C7.06899 10.2853 7.12235 10.1261 7.1889 9.96252C7.256 9.79824 7.32667 9.64567 7.39872 9.50896C7.46995 9.37361 7.54227 9.25662 7.61377 9.16131C7.6828 9.06937 7.7477 9.00131 7.80682 8.95896C7.85082 8.92767 7.87503 8.92428 7.88355 8.92428C7.8874 8.92428 7.8907 8.92492 7.89372 8.92626C7.90197 8.92989 7.93085 8.94826 7.94817 9.03203C7.96385 9.10642 7.96522 9.20429 7.95175 9.32287Z" fill="white"/>
<path d="M3.64918 11.1555C3.67586 11.0506 3.70611 10.9404 3.73938 10.827C3.74708 10.8013 3.78531 10.8046 3.78833 10.8312C3.79741 10.9182 3.80896 11.0039 3.82243 11.0864C3.83783 11.1799 3.85626 11.2725 3.87743 11.3617C3.89888 11.4511 3.92308 11.5379 3.94921 11.6199C3.97616 11.7033 4.00586 11.7841 4.03748 11.86C4.06938 11.9369 4.10458 12.0114 4.14199 12.0815C4.17911 12.1517 4.21953 12.2195 4.26216 12.2833C4.30506 12.3471 4.35099 12.408 4.39884 12.4643C4.44724 12.5214 4.49866 12.5749 4.55146 12.6232C4.59519 12.6634 4.64139 12.7012 4.68814 12.7357C4.74644 12.7783 4.80749 12.8167 4.86991 12.85C4.93344 12.8838 4.99971 12.9131 5.06654 12.9368C5.10146 12.9491 5.13639 12.96 5.17021 12.9691C5.20514 12.9787 5.24089 12.987 5.27664 12.9938C5.34869 13.0076 5.42294 13.0162 5.49747 13.0193C5.51919 13.0202 5.54092 13.0206 5.56264 13.0206C5.61627 13.0206 5.67127 13.0179 5.72627 13.0124C5.80354 13.0047 5.88247 12.9914 5.96084 12.9729C6.03949 12.9544 6.12007 12.9303 6.20009 12.901C6.28039 12.8716 6.36207 12.8365 6.44292 12.7968C6.48472 12.7761 6.52597 12.7545 6.5653 12.7326C6.64367 12.689 6.72315 12.6401 6.80152 12.5872C6.88375 12.5317 6.96817 12.4696 7.05232 12.4026C7.08697 12.3748 7.1219 12.3459 7.15682 12.3163C7.22777 12.2559 7.23987 12.153 7.18515 12.0784C7.13015 12.0038 7.02592 11.982 6.94425 12.0278C6.91895 12.0419 6.89365 12.0554 6.86862 12.0681C6.80317 12.1014 6.73689 12.1305 6.67117 12.1546C6.60709 12.1782 6.54247 12.1974 6.4795 12.2118C6.41762 12.2259 6.35547 12.2357 6.2947 12.2409C6.23502 12.2461 6.17507 12.2469 6.11732 12.2434C6.05984 12.2398 6.00264 12.2319 5.94737 12.2198C5.89209 12.2078 5.83709 12.1912 5.78402 12.1706C5.73039 12.1496 5.67732 12.1241 5.62699 12.0949C5.57529 12.0648 5.52469 12.0301 5.47657 11.9916C5.42734 11.9522 5.37949 11.9078 5.33439 11.8598C5.28791 11.8103 5.24309 11.756 5.20184 11.6983C5.15894 11.6391 5.11852 11.5747 5.08084 11.5069C5.04261 11.4378 5.00686 11.3633 4.97441 11.2853C4.95791 11.2465 4.94196 11.2055 4.92684 11.1634C4.90291 11.0975 4.88092 11.0278 4.86111 10.9564C4.83526 10.8641 4.81299 10.7665 4.79401 10.6664C4.77504 10.5645 4.75936 10.457 4.74781 10.3468C4.73736 10.2507 4.72994 10.1512 4.72554 10.0503C4.72499 10.0368 4.72966 10.0302 4.74286 10.0261C4.95104 9.96226 5.15179 9.88301 5.34044 9.79003C5.56897 9.67717 5.77164 9.54258 5.94269 9.39012C6.11512 9.2364 6.25372 9.06117 6.35465 8.86924C6.45612 8.67562 6.50782 8.46172 6.50782 8.23355C6.50782 8.0218 6.44897 7.83263 6.3332 7.67134C6.21962 7.5128 6.06892 7.37799 5.88522 7.27066C5.70399 7.16457 5.49526 7.08388 5.26481 7.03083C5.03629 6.97828 4.80171 6.95166 4.56796 6.95166C4.15738 6.95166 3.78641 7.01788 3.46548 7.14848C3.14675 7.27831 2.87643 7.43679 2.66248 7.61945C2.44825 7.80235 2.2827 7.99592 2.17078 8.19475C2.05583 8.3988 2 8.56762 2 8.71095C2 8.8751 2.0396 9.00823 2.11743 9.10652C2.19498 9.20425 2.28133 9.27099 2.3751 9.3049C2.47218 9.34021 2.56678 9.34414 2.65285 9.31695C2.75075 9.28606 2.80465 9.21429 2.80465 9.11485C2.80465 8.97625 2.84673 8.80957 2.92978 8.61941C3.01365 8.42759 3.133 8.24263 3.28426 8.06965C3.43468 7.8975 3.61893 7.74922 3.83178 7.6288C4.03968 7.51118 4.27591 7.45156 4.53441 7.45156C4.77724 7.45156 4.96947 7.50769 5.10587 7.61848C5.24089 7.72796 5.30909 7.90523 5.30909 8.1453C5.30909 8.33203 5.27004 8.50929 5.19331 8.67223C5.11549 8.83696 5.01181 8.98854 4.88586 9.12277C4.75909 9.25733 4.61444 9.37588 4.45549 9.4751C4.35841 9.53563 4.25914 9.58862 4.15876 9.63361C4.13869 9.64257 4.11751 9.62368 4.12466 9.6035C4.20001 9.39807 4.28003 9.18698 4.36336 8.97352C4.46621 8.71002 4.58144 8.43933 4.70656 8.16796C4.75551 8.06162 4.69254 7.93823 4.57594 7.9115C4.38234 7.86706 4.15354 7.85974 3.89008 7.8895C3.77348 7.90264 3.67256 7.97392 3.62361 8.07743C3.47456 8.39344 3.33706 8.71395 3.21441 9.03238C3.07168 9.40294 2.9471 9.75106 2.84453 10.0671C2.74113 10.3856 2.66055 10.6676 2.60473 10.9053C2.54725 11.149 2.51948 11.3202 2.51948 11.4284C2.51948 11.5615 2.5665 11.6744 2.65945 11.7643C2.74773 11.8499 2.84921 11.9111 2.96031 11.9464C3.07333 11.9821 3.18278 11.9902 3.28453 11.9706C3.40306 11.948 3.47703 11.8786 3.49931 11.7684C3.51003 11.7064 3.52956 11.6214 3.55706 11.5158C3.58483 11.408 3.61563 11.2879 3.64918 11.1555Z" fill="white"/>
</g>
<defs>
<linearGradient id="paint0_linear_2_926" x1="-5.57522" y1="-3.33333" x2="17.0398" y2="24.1791" gradientUnits="userSpaceOnUse">
<stop offset="0.162635" stop-color="#FF7D45"/>
<stop offset="0.403871" stop-color="#FF0C37"/>
<stop offset="0.663436" stop-color="#FF0C37"/>
<stop offset="1" stop-color="#FF3E8F"/>
</linearGradient>
</defs>
</svg>
