<svg width="18" height="18" viewBox="0 0 18 18" fill="none" xmlns="http://www.w3.org/2000/svg">
<path d="M7.82813 0.166504C11.9681 0.166504 15.3281 3.5265 15.3281 7.6665C15.3281 11.8065 11.9681 15.1665 7.82813 15.1665C3.68813 15.1665 0.328125 11.8065 0.328125 7.6665C0.328125 3.5265 3.68813 0.166504 7.82813 0.166504ZM7.82813 13.4998C11.051 13.4998 13.6615 10.8894 13.6615 7.6665C13.6615 4.44359 11.051 1.83317 7.82813 1.83317C4.60521 1.83317 1.99479 4.44359 1.99479 7.6665C1.99479 10.8894 4.60521 13.4998 7.82813 13.4998ZM14.8992 13.5591L17.2562 15.9161L16.0777 17.0946L13.7207 14.7376L14.8992 13.5591Z" fill="#959BA4"/>
</svg>
