<svg width="24" height="24" viewBox="0 0 24 24" fill="none" xmlns="http://www.w3.org/2000/svg">
<path d="M3.25 2.5C3.25 2.30109 3.17098 2.11032 3.03033 1.96967C2.88968 1.82902 2.69891 1.75 2.5 1.75C2.30109 1.75 2.11032 1.82902 1.96967 1.96967C1.82902 2.11032 1.75 2.30109 1.75 2.5V15.555C1.75 16.922 1.75 18.025 1.867 18.892C1.987 19.792 2.247 20.55 2.848 21.152C3.45 21.754 4.208 22.012 5.108 22.134C5.975 22.25 7.078 22.25 8.445 22.25H21.5C21.6989 22.25 21.8897 22.171 22.0303 22.0303C22.171 21.8897 22.25 21.6989 22.25 21.5C22.25 21.3011 22.171 21.1103 22.0303 20.9697C21.8897 20.829 21.6989 20.75 21.5 20.75H8.5C7.065 20.75 6.063 20.748 5.308 20.647C4.574 20.548 4.186 20.367 3.909 20.091C3.632 19.814 3.452 19.426 3.353 18.691C3.252 17.936 3.25 16.935 3.25 15.5V2.5Z" fill="#5932EA"/>
<path d="M20.5308 9.02985C20.6632 8.88767 20.7354 8.69963 20.7319 8.50532C20.7285 8.31102 20.6498 8.12564 20.5124 7.98822C20.375 7.85081 20.1896 7.7721 19.9953 7.76867C19.801 7.76524 19.6129 7.83737 19.4708 7.96985L14.7708 12.6688C14.6928 12.7478 14.6278 12.8118 14.5708 12.8668L14.3978 12.6448L12.3028 9.95185C12.1616 9.76148 12.008 9.58075 11.8428 9.41085C11.6668 9.24085 11.3988 9.04285 11.0178 9.02885C10.6368 9.01585 10.3548 9.19285 10.1668 9.35085C9.99005 9.5083 9.82401 9.67734 9.66976 9.85685L5.94376 13.9978C5.87539 14.0706 5.82224 14.1562 5.7874 14.2498C5.75256 14.3433 5.73675 14.4428 5.74088 14.5426C5.74501 14.6423 5.76901 14.7402 5.81146 14.8305C5.85392 14.9209 5.91398 15.0018 5.98812 15.0686C6.06227 15.1355 6.14901 15.1868 6.24325 15.2197C6.3375 15.2526 6.43736 15.2663 6.53698 15.2601C6.6366 15.2538 6.73398 15.2278 6.8234 15.1835C6.91283 15.1391 6.9925 15.0774 7.05776 15.0018L10.7588 10.8898C10.8378 10.8018 10.9018 10.7298 10.9588 10.6698L11.1418 10.9028L13.2368 13.5958C13.3778 13.7778 13.5278 13.9708 13.6758 14.1148C13.8468 14.2808 14.1038 14.4708 14.4698 14.4928C14.8358 14.5158 15.1148 14.3598 15.3048 14.2158C15.4813 14.0736 15.6484 13.92 15.8048 13.7558L20.5308 9.02985Z" fill="#5932EA"/>
</svg>
